<?xml version="1.0" encoding="utf-8"?>
<!-- Generator: Adobe Illustrator 19.1.0, SVG Export Plug-In . SVG Version: 6.00 Build 0)  -->
<svg version="1.1" id="Layer_1" xmlns="http://www.w3.org/2000/svg" xmlns:xlink="http://www.w3.org/1999/xlink" x="0px" y="0px"
	 viewBox="0 0 431.791 82.5" enable-background="new 0 0 431.791 82.5" xml:space="preserve">
<g>
	<path fill="#F2F8FB" d="M135.042,22.063c-3.022-3.023-6.717-4.555-10.982-4.555h-18.466l8.237,8.299h10.229
		c1.964,0,3.681,0.72,5.11,2.149c1.453,1.399,2.189,3.132,2.189,5.151c0,1.964-0.739,3.7-2.198,5.159
		c-1.421,1.42-3.138,2.141-5.102,2.141h-23.212v23.526h8.242V48.705h14.97c4.265,0,7.96-1.533,10.98-4.553
		c3.027-2.97,4.562-6.686,4.562-11.046C139.602,28.862,138.069,25.148,135.042,22.063z"/>
	<path fill="#F2F8FB" d="M174.968,56.045c-1.34,0.454-3.003,0.685-4.943,0.685c-1.985,0-3.66-0.231-4.978-0.685
		c-1.332-0.458-2.43-1.125-3.261-1.981c-0.834-0.857-1.433-1.901-1.78-3.104c-0.341-1.182-0.513-2.537-0.513-4.027V16.656h-8.321
		v32.613c0,2.348,0.451,4.506,1.34,6.413c0.888,1.908,2.174,3.556,3.821,4.898c1.653,1.349,3.651,2.397,5.94,3.116
		c2.296,0.722,4.905,1.088,7.753,1.088c2.804,0,5.401-0.366,7.721-1.088c2.309-0.718,4.318-1.767,5.973-3.116
		c1.647-1.344,2.933-2.991,3.82-4.898c0.889-1.91,1.34-4.068,1.34-6.413V16.656h-8.322v30.275c0,1.493-0.173,2.848-0.513,4.027
		c-0.346,1.202-0.945,2.246-1.78,3.104C177.433,54.919,176.324,55.586,174.968,56.045z"/>
	<path fill="#F2F8FB" d="M235.303,40.799c-1.236-0.976-2.679-1.769-4.288-2.356c-1.624-0.593-3.341-1.094-5.104-1.491l-5.808-1.269
		c-1.342-0.312-2.602-0.613-3.782-0.904c-1.196-0.293-2.274-0.671-3.202-1.124c-0.952-0.463-1.707-1.043-2.246-1.724
		c-0.554-0.697-0.836-1.583-0.836-2.632c0-1.809,0.921-3.217,2.738-4.184c1.752-0.933,3.97-1.406,6.592-1.406
		c2.98,0,5.583,0.62,7.736,1.844c2.052,1.167,3.683,2.807,4.854,4.879l6.872-5.2c-2.41-3.113-5.237-5.434-8.406-6.902
		c-3.261-1.509-6.958-2.275-10.989-2.275c-2.188,0-4.396,0.3-6.563,0.891c-2.158,0.589-4.114,1.494-5.813,2.692
		c-1.692,1.194-3.088,2.722-4.15,4.544c-1.058,1.813-1.594,3.961-1.594,6.387c0,2.121,0.381,3.926,1.133,5.365
		c0.752,1.442,1.779,2.665,3.052,3.635c1.281,0.978,2.781,1.783,4.458,2.393c1.694,0.616,3.513,1.152,5.407,1.592l5.275,1.202
		c1.605,0.357,3.028,0.719,4.227,1.073c1.222,0.363,2.277,0.788,3.136,1.262c0.884,0.489,1.56,1.072,2.011,1.734
		c0.458,0.676,0.689,1.522,0.689,2.514c0,1.227-0.35,2.272-1.041,3.106c-0.671,0.811-1.527,1.468-2.544,1.953
		c-1.001,0.478-2.13,0.823-3.357,1.028c-1.212,0.202-2.376,0.305-3.458,0.305c-2.972,0-5.747-0.594-8.248-1.766
		c-2.423-1.135-4.504-2.924-6.188-5.319l-7.105,5.11c1.057,1.513,2.324,2.865,3.77,4.021c1.532,1.226,3.207,2.269,4.98,3.1
		c1.77,0.831,3.646,1.464,5.577,1.881c4.343,0.937,8.73,0.78,13.16-0.167c2.449-0.525,4.673-1.399,6.613-2.598
		c1.93-1.192,3.525-2.787,4.74-4.741c1.21-1.946,1.823-4.362,1.823-7.181c0-2.208-0.382-4.082-1.135-5.568
		C237.534,43.013,236.529,41.767,235.303,40.799z"/>
	<polygon fill="#F2F8FB" points="260.007,17.257 251.686,17.257 251.686,64.183 260.007,64.183 260.007,42.743 281.073,42.743 
		281.073,64.183 289.395,64.183 289.395,17.257 281.073,17.257 281.073,35.089 260.007,35.089 	"/>
	<path fill="#F2F8FB" d="M330.777,45.035c0.58-0.223,1.393-0.58,2.417-1.06c1.009-0.473,2.024-1.215,3.017-2.208
		c0.992-0.992,1.881-2.343,2.641-4.015c0.757-1.667,1.141-3.837,1.141-6.449c0-2.04-0.363-3.943-1.078-5.656
		c-0.715-1.71-1.746-3.202-3.064-4.434c-1.321-1.233-2.969-2.211-4.9-2.906c-1.941-0.697-4.186-1.05-6.673-1.05h-19.522v46.925
		h8.321V46.684h9.053l9.217,17.498h9.63L330.44,45.165L330.777,45.035z M328.956,37.486c-1.52,1.29-3.476,1.945-5.813,1.945h-10.065
		V24.51h8.73c3.179,0,5.574,0.677,7.118,2.014c1.557,1.349,2.346,3.181,2.346,5.447C331.271,34.328,330.492,36.184,328.956,37.486z"
		/>
	<g>
		<rect x="353.565" y="37.256" fill="#F2F8FB" width="29.884" height="6.986"/>
		<polygon fill="#F2F8FB" points="383.449,56.261 360.988,56.261 353.565,63.126 353.565,63.304 383.449,63.304 		"/>
		<polygon fill="#F2F8FB" points="360.996,25.179 383.449,25.179 383.449,18.136 354.006,18.136 		"/>
	</g>
	<polygon fill="#F2F8FB" points="410.446,64.183 418.767,64.183 418.767,24.911 431.791,24.911 431.791,17.257 397.422,17.257 
		397.422,24.911 410.446,24.911 	"/>
	<g>
		<path fill="#06B3FF" d="M39.967,81.559l-2.133-1.255c-0.353-0.208-8.743-5.184-17.082-13.75
			C-2.522,42.653,0.245,6.372,0.374,4.838L0.699,1h78.543l0.325,3.838c0.129,1.534,2.895,37.839-20.376,61.74
			c-8.343,8.567-16.734,13.527-17.088,13.734L39.967,81.559z M8.662,9c0.005,10,1.701,34.613,18.129,51.484
			c5.127,5.266,10.354,9.178,13.182,11.086c2.826-1.903,8.053-5.857,13.179-11.121C69.577,43.579,71.273,19,71.278,9H8.662z"/>
	</g>
	<path fill="#06B3FF" d="M57.194,13.561C54.172,10.538,50.477,9,46.212,9H22.56l8.237,8h15.415c1.964,0,3.681,0.875,5.11,2.304
		c1.453,1.399,2.189,3.209,2.189,5.228c0,1.964-0.739,3.784-2.198,5.243C49.893,31.196,48.176,32,46.212,32H21v35h9V40h16.212
		c4.265,0,7.96-1.429,10.98-4.449c3.027-2.97,4.562-6.637,4.562-10.996C61.754,20.31,60.221,16.645,57.194,13.561z"/>
	<polygon fill="#06B3FF" points="49.816,65.677 59.446,65.677 51.044,45.15 41.771,45.15 	"/>
</g>
</svg>
